<svg width="84" height="84" viewBox="0 0 84 84" fill="none" xmlns="http://www.w3.org/2000/svg">
<rect x="2.5" y="2.5" width="79" height="79" fill="#D9D9D9" stroke="black" stroke-width="5"/>
<path fill-rule="evenodd" clip-rule="evenodd" d="M42.0355 16.0003C41.6622 15.9937 41.2965 16.1064 40.9928 16.3236L34.1645 21.2002H24.6701C24.4421 21.2 24.2164 21.2448 24.0058 21.3319C23.7953 21.419 23.6039 21.5468 23.4428 21.7079C23.2816 21.8691 23.1538 22.0604 23.0667 22.271C22.9796 22.4816 22.9348 22.7073 22.935 22.9352V29.2219L16.7262 33.6567C16.2707 33.982 16.0003 34.5071 16 35.0668V66.2665C16.0001 67.2237 16.7761 67.9997 17.7333 67.9998H31.5983C33.9413 68.0325 33.9413 64.5011 31.5983 64.5331H23.6307L64.5333 38.2422V59.3332C64.5333 62.2439 62.2441 64.5331 59.3333 64.5331H45.4684C43.1254 64.5004 43.1254 68.0318 45.4684 67.9998H59.3333C64.1047 67.9998 68 64.1045 68 59.3332V35.0668C67.9997 34.5071 67.7293 33.982 67.2738 33.6567L61.065 29.2219V22.9352C61.0652 22.7075 61.0205 22.4819 60.9335 22.2714C60.8465 22.0609 60.7188 21.8697 60.5578 21.7085C60.3969 21.5474 60.2057 21.4196 59.9953 21.3324C59.7849 21.2451 59.5594 21.2002 59.3316 21.2002H49.8355L43.0072 16.3236C42.7232 16.1205 42.3846 16.0078 42.0355 16.0003ZM42 19.863L43.8721 21.2002H40.1279L42 19.863ZM26.4034 24.6685H57.5983V38.574L41.9424 48.6388L26.4034 38.6045V24.6685ZM49.0366 29.8668C49.0027 29.8669 48.9688 29.8681 48.935 29.8702H35.065C34.8285 29.855 34.5914 29.8885 34.3683 29.9686C34.1452 30.0486 33.9409 30.1736 33.7681 30.3357C33.5952 30.4978 33.4574 30.6937 33.3632 30.9112C33.269 31.1286 33.2205 31.3631 33.2205 31.6001C33.2205 31.8371 33.269 32.0716 33.3632 32.2891C33.4574 32.5065 33.5952 32.7024 33.7681 32.8645C33.9409 33.0266 34.1452 33.1516 34.3683 33.2317C34.5914 33.3117 34.8285 33.3452 35.065 33.3301H48.935C49.1674 33.3452 49.4005 33.3135 49.6203 33.2366C49.8402 33.1597 50.0423 33.0393 50.2146 32.8826C50.3869 32.7259 50.5258 32.5361 50.6231 32.3245C50.7204 32.1129 50.7741 31.8839 50.7809 31.6511C50.7877 31.4183 50.7476 31.1865 50.6628 30.9696C50.5781 30.7526 50.4505 30.555 50.2877 30.3885C50.1249 30.2219 49.9302 30.0899 49.7153 30.0003C49.5003 29.9106 49.2695 29.8653 49.0366 29.8668ZM22.935 33.4807V36.3634L20.8158 34.9957L22.935 33.4807ZM61.065 33.4807L63.1758 34.9889L61.065 36.3447V33.4807ZM35.065 36.7984C34.612 36.8085 34.181 36.9956 33.8642 37.3196C33.5475 37.6435 33.3701 38.0786 33.3701 38.5317C33.3701 38.9848 33.5475 39.4199 33.8642 39.7438C34.181 40.0678 34.612 40.2548 35.065 40.265H42C42.2309 40.2702 42.4605 40.2292 42.6753 40.1444C42.8902 40.0596 43.0859 39.9328 43.251 39.7713C43.4162 39.6099 43.5474 39.417 43.637 39.2042C43.7265 38.9913 43.7727 38.7626 43.7727 38.5317C43.7727 38.3007 43.7265 38.0721 43.637 37.8592C43.5474 37.6464 43.4162 37.4535 43.251 37.2921C43.0859 37.1306 42.8902 37.0037 42.6753 36.919C42.4605 36.8342 42.2309 36.7932 42 36.7984H35.065ZM19.4667 38.249L38.7415 50.6971L19.4667 63.0893V38.249ZM38.5333 64.5331C38.3057 64.5331 38.0803 64.578 37.87 64.6651C37.6597 64.7522 37.4686 64.8799 37.3077 65.0408C37.1467 65.2018 37.0191 65.3929 36.9319 65.6031C36.8448 65.8134 36.8 66.0388 36.8 66.2665C36.8 66.4941 36.8448 66.7195 36.9319 66.9298C37.0191 67.1401 37.1467 67.3311 37.3077 67.4921C37.4686 67.6531 37.6597 67.7807 37.87 67.8678C38.0803 67.9549 38.3057 67.9998 38.5333 67.9998C38.761 67.9998 38.9864 67.9549 39.1967 67.8678C39.4069 67.7807 39.598 67.6531 39.759 67.4921C39.9199 67.3311 40.0476 67.1401 40.1347 66.9298C40.2218 66.7195 40.2667 66.4941 40.2667 66.2665C40.2667 66.0388 40.2218 65.8134 40.1347 65.6031C40.0476 65.3929 39.9199 65.2018 39.759 65.0408C39.598 64.8799 39.4069 64.7522 39.1967 64.6651C38.9864 64.578 38.761 64.5331 38.5333 64.5331Z" fill="black"/>
</svg>
